<svg width="25" height="14" viewBox="0 0 25 14" fill="none" xmlns="http://www.w3.org/2000/svg">
<path d="M22.5634 4.78894C23.9069 4.78894 25 3.7148 25 2.39452C25 1.07423 23.9069 0 22.5634 0C21.2199 0 20.1268 1.07423 20.1268 2.39452C20.1268 2.93374 20.3093 3.43178 20.6166 3.83251L16.6131 9.3302C16.3742 9.2531 16.1194 9.21077 15.8545 9.21077C15.2142 9.21077 14.6312 9.4551 14.1959 9.85334L11.5275 8.36535C11.563 8.20291 11.5821 8.03453 11.5821 7.86185C11.5821 6.54156 10.4891 5.46743 9.14553 5.46743C7.80199 5.46743 6.70893 6.54156 6.70893 7.86185C6.70893 8.03453 6.72804 8.20291 6.76361 8.36535L4.09514 9.85334C3.65987 9.4551 3.07684 9.21087 2.4366 9.21087C1.09306 9.21087 0 10.2851 0 11.6054C0 12.9257 1.09306 13.9999 2.4366 13.9999C3.78014 13.9999 4.8732 12.9257 4.8732 11.6054C4.8732 11.4327 4.8541 11.2643 4.81852 11.1019L7.48699 9.6139C7.92226 10.0121 8.50529 10.2565 9.14553 10.2565C9.78578 10.2565 10.3687 10.0121 10.8041 9.61399L13.4725 11.102C13.437 11.2644 13.4179 11.4328 13.4179 11.6055C13.4179 12.9258 14.5109 14 15.8545 14C17.1981 14 18.2912 12.9258 18.2912 11.6055C18.2912 11.0662 18.1086 10.568 17.8013 10.1673L21.8047 4.6696C22.0435 4.74661 22.2985 4.78894 22.5634 4.78894ZM22.5634 1.43665C23.1008 1.43665 23.538 1.86631 23.538 2.39452C23.538 2.92263 23.1008 3.35229 22.5634 3.35229C22.026 3.35229 21.5888 2.92263 21.5888 2.39452C21.5887 1.86631 22.0259 1.43665 22.5634 1.43665ZM2.43631 12.5631C1.89889 12.5631 1.46167 12.1334 1.46167 11.6052C1.46167 11.077 1.89889 10.6473 2.43631 10.6473C2.97372 10.6473 3.41095 11.077 3.41095 11.6052C3.41095 12.1334 2.97372 12.5631 2.43631 12.5631ZM9.14534 8.81962C8.60792 8.81962 8.1707 8.38996 8.1707 7.86175C8.1707 7.33364 8.60792 6.90398 9.14534 6.90398C9.68276 6.90398 10.12 7.33364 10.12 7.86175C10.1201 8.38996 9.68276 8.81962 9.14534 8.81962ZM15.8544 12.5631C15.317 12.5631 14.8797 12.1334 14.8797 11.6052C14.8797 11.077 15.317 10.6473 15.8544 10.6473C16.3919 10.6473 16.8291 11.077 16.8291 11.6052C16.8291 12.1334 16.3918 12.5631 15.8544 12.5631Z" fill="#E31F26"/>
</svg>
