<svg width="10" height="14" viewBox="0 0 10 14" fill="none" xmlns="http://www.w3.org/2000/svg">
<path d="M4.99995 0C2.24294 0 0 2.30168 0 5.13091C0 6.43059 0.798022 8.26689 2.372 10.5889C3.52246 12.2862 4.65397 13.5997 4.70164 13.6548L4.99995 14L5.29836 13.6548C5.34593 13.5997 6.47744 12.2862 7.628 10.5889C9.20187 8.26689 10 6.43059 10 5.13091C10 2.30168 7.75696 0 4.99995 0ZM6.97757 10.1148C6.19995 11.2628 5.414 12.2509 4.99995 12.7549C4.58694 12.2522 3.8039 11.268 3.0268 10.1215C1.56846 7.97006 0.797606 6.24431 0.797606 5.13091C0.797606 2.75307 2.6828 0.818497 4.99995 0.818497C7.3172 0.818497 9.20229 2.75307 9.20229 5.13091C9.20229 6.24313 8.43299 7.96654 6.97757 10.1148Z" fill="#7798B5"/>
<path d="M4.99975 1.89844C3.37259 1.89844 2.04883 3.25687 2.04883 4.92665C2.04883 6.59644 3.37259 7.95497 4.99975 7.95497C6.62702 7.95497 7.95078 6.59644 7.95078 4.92665C7.95078 3.25687 6.62702 1.89844 4.99975 1.89844ZM4.99975 7.13647C3.81245 7.13647 2.84643 6.14516 2.84643 4.92665C2.84643 3.70825 3.81245 2.71693 4.99975 2.71693C6.18716 2.71693 7.15317 3.70825 7.15317 4.92665C7.15317 6.14516 6.18716 7.13647 4.99975 7.13647Z" fill="#7798B5"/>
</svg>
