<svg width="12" height="12" viewBox="0 0 12 12" fill="none" xmlns="http://www.w3.org/2000/svg">
<path d="M10.2427 1.75734C9.10941 0.624094 7.60266 0 6 0C4.39734 0 2.89059 0.624094 1.75734 1.75734C0.624117 2.89059 0 4.39734 0 6C0 7.60266 0.624117 9.10941 1.75734 10.2427C2.89059 11.3759 4.39734 12 6 12C7.60266 12 9.10941 11.3759 10.2427 10.2427C11.3759 9.10941 12 7.60266 12 6C12 4.39734 11.3759 2.89059 10.2427 1.75734ZM6 11.2969C3.07929 11.2969 0.703125 8.92071 0.703125 6C0.703125 3.07929 3.07929 0.703125 6 0.703125C8.92071 0.703125 11.2969 3.07929 11.2969 6C11.2969 8.92071 8.92071 11.2969 6 11.2969Z" fill="#E31F26"/>
<path d="M6.37695 5.6488H5.6238C5.19473 5.6488 4.84568 5.29975 4.84568 4.8707C4.84568 4.44163 5.19476 4.09258 5.6238 4.09258H7.13006C7.32422 4.09258 7.48163 3.93517 7.48163 3.74102C7.48163 3.54686 7.32422 3.38945 7.13006 3.38945H6.35194V2.61133C6.35194 2.41717 6.19453 2.25977 6.00038 2.25977C5.80622 2.25977 5.64881 2.41717 5.64881 2.61133V3.38945H5.62383C4.80705 3.38945 4.14258 4.05395 4.14258 4.8707C4.14258 5.68745 4.80708 6.35193 5.62383 6.35193H6.37697C6.80602 6.35193 7.15507 6.70101 7.15507 7.13005C7.15507 7.5591 6.80602 7.90818 6.37697 7.90818H4.87071C4.67655 7.90818 4.51915 8.06559 4.51915 8.25974C4.51915 8.4539 4.67655 8.6113 4.87071 8.6113H5.64881V9.38945C5.64881 9.58361 5.80622 9.74102 6.00038 9.74102C6.19453 9.74102 6.35194 9.58361 6.35194 9.38945V8.6113H6.37695C7.1937 8.6113 7.85817 7.9468 7.85817 7.13005C7.85817 6.3133 7.1937 5.6488 6.37695 5.6488Z" fill="#E31F26"/>
</svg>
