<svg width="12" height="12" viewBox="0 0 12 12" fill="none" xmlns="http://www.w3.org/2000/svg">
<path d="M11.7285 0H0.271493C0.121548 0 0 0.121575 0 0.271493V11.7285C0 11.8784 0.121548 12 0.271493 12H11.7285C11.8785 12 12 11.8784 12 11.7285V0.271493C12 0.121575 11.8785 0 11.7285 0ZM11.457 11.457H0.542986V0.542986H11.457V11.457Z" fill="#E31F26"/>
<path d="M0.854118 5.85921C0.852761 5.86143 0.851349 5.86363 0.850046 5.86588C0.839403 5.88456 0.830987 5.90457 0.824987 5.92567C0.824254 5.92825 0.823657 5.93083 0.823005 5.9334C0.820942 5.94155 0.819259 5.94986 0.817983 5.9583C0.817548 5.96118 0.817032 5.96403 0.816652 5.96693C0.815349 5.97779 0.814453 5.98876 0.814453 5.99997C0.814453 6.01119 0.815349 6.02216 0.816652 6.03302C0.817005 6.03592 0.817521 6.03877 0.817983 6.04165C0.819286 6.05009 0.820969 6.05837 0.823005 6.06654C0.823657 6.06912 0.824254 6.0717 0.824987 6.07428C0.830987 6.09538 0.839403 6.11539 0.850046 6.13407C0.851349 6.13632 0.852761 6.13852 0.854118 6.14074C0.858435 6.14786 0.86305 6.15473 0.867992 6.16138C0.869756 6.16374 0.87144 6.16613 0.873286 6.16844C0.879856 6.17674 0.886779 6.18475 0.894245 6.19219C0.894869 6.19282 0.895602 6.19336 0.896227 6.19398C0.903286 6.20088 0.910779 6.20731 0.918571 6.21342C0.920906 6.21524 0.923295 6.21701 0.925711 6.21874C0.933014 6.22409 0.940562 6.22909 0.948381 6.2337C0.949575 6.23441 0.950634 6.2353 0.951829 6.23598L0.956417 6.23859C0.956471 6.23862 0.956553 6.23867 0.956607 6.2387L2.71474 7.23758C2.7571 7.26166 2.80314 7.27309 2.84862 7.27309C2.9431 7.27309 3.03491 7.22368 3.08492 7.13563C3.15899 7.00526 3.11335 6.83954 2.98298 6.76548L2.11339 6.27147H5.72848V9.88656L5.23444 9.017C5.16035 8.88657 4.99463 8.84093 4.86426 8.91505C4.73389 8.98912 4.68825 9.15484 4.76232 9.28521L5.76391 11.0481C5.76462 11.0494 5.76551 11.0504 5.76625 11.0517C5.77086 11.0595 5.77583 11.067 5.78118 11.0743C5.78292 11.0766 5.78465 11.079 5.78644 11.0813C5.79263 11.0892 5.79915 11.0968 5.80618 11.104C5.8067 11.1045 5.80716 11.1051 5.8077 11.1056C5.8152 11.1131 5.82326 11.1201 5.83162 11.1267C5.83387 11.1285 5.83618 11.1301 5.83846 11.1318C5.8452 11.1368 5.85217 11.1415 5.85937 11.1459C5.86154 11.1472 5.86363 11.1486 5.86583 11.1498C5.88454 11.1605 5.9046 11.1689 5.92572 11.1749C5.92825 11.1756 5.9308 11.1762 5.93335 11.1769C5.94155 11.179 5.94986 11.1806 5.95833 11.1819C5.9612 11.1824 5.96403 11.1829 5.96691 11.1832C5.97777 11.1846 5.98876 11.1855 5.99997 11.1855C6.01119 11.1855 6.02218 11.1846 6.03304 11.1832C6.03592 11.1829 6.03877 11.1824 6.04162 11.1819C6.05009 11.1806 6.0584 11.179 6.0666 11.1769C6.06915 11.1762 6.0717 11.1756 6.07423 11.1749C6.09538 11.1689 6.11541 11.1605 6.13412 11.1498C6.13632 11.1486 6.13844 11.1472 6.14058 11.1459C6.14777 11.1415 6.15475 11.1368 6.16149 11.1318C6.16377 11.1301 6.1661 11.1285 6.16833 11.1267C6.17666 11.1201 6.18473 11.1131 6.19225 11.1056C6.19276 11.1051 6.19322 11.1045 6.19377 11.104C6.20077 11.0968 6.20729 11.0892 6.2135 11.0813C6.21532 11.079 6.21703 11.0767 6.21877 11.0743C6.22412 11.067 6.22909 11.0594 6.2337 11.0517C6.23444 11.0504 6.23533 11.0494 6.23604 11.0481L7.23763 9.28521C7.31169 9.15484 7.26606 8.98912 7.13568 8.91505C7.00526 8.84088 6.83959 8.8866 6.7655 9.017L6.27147 9.88656V2.11339L6.7655 2.98295C6.81551 3.071 6.90733 3.12041 7.00181 3.12041C7.04726 3.12041 7.09333 3.10898 7.13568 3.0849C7.26606 3.01083 7.31169 2.84511 7.23763 2.71474L6.23604 0.951829C6.23533 0.95058 6.23444 0.949521 6.2337 0.948299C6.22909 0.94048 6.22412 0.93296 6.21877 0.925684C6.21703 0.923322 6.2153 0.920933 6.2135 0.918625C6.20731 0.910725 6.2008 0.903123 6.19377 0.895983C6.19325 0.89544 6.19279 0.894842 6.19225 0.894326C6.18475 0.886806 6.17669 0.879856 6.16833 0.873231C6.16607 0.871467 6.16377 0.869811 6.16149 0.868127C6.15475 0.863105 6.14777 0.858435 6.14058 0.854064C6.13841 0.852761 6.13632 0.851376 6.13412 0.850127C6.11541 0.839458 6.09535 0.831014 6.07423 0.825014C6.0717 0.824308 6.06915 0.823711 6.0666 0.823059C6.0584 0.820996 6.05009 0.819313 6.04162 0.81801C6.03874 0.817548 6.03592 0.817032 6.03304 0.816707C6.02218 0.815349 6.01119 0.814453 5.99997 0.814453C5.98876 0.814453 5.97777 0.815349 5.96691 0.816679C5.96403 0.817032 5.96118 0.817548 5.95833 0.817983C5.94986 0.819286 5.94155 0.820969 5.93335 0.823032C5.9308 0.823684 5.92825 0.824281 5.92572 0.824987C5.90457 0.830987 5.88454 0.83943 5.86583 0.8501C5.86363 0.851349 5.86151 0.852734 5.85937 0.854037C5.85217 0.858408 5.8452 0.863078 5.83846 0.8681C5.83618 0.869811 5.83385 0.87144 5.83162 0.873204C5.82329 0.879829 5.81522 0.886779 5.8077 0.894299C5.80719 0.894842 5.80673 0.89544 5.80618 0.895955C5.79918 0.903123 5.79266 0.910725 5.78644 0.918598C5.78463 0.920906 5.78292 0.923268 5.78118 0.925657C5.77583 0.932933 5.77086 0.94048 5.76625 0.948272C5.76551 0.949494 5.76462 0.950553 5.76391 0.951802L4.76232 2.71472C4.68825 2.84509 4.73389 3.01081 4.86426 3.08487C4.99463 3.15896 5.16035 3.1133 5.23444 2.98292L5.72848 2.11339V5.72848H2.11339L2.98295 5.23444C3.11332 5.16038 3.15896 4.99466 3.0849 4.86429C3.01081 4.73389 2.84511 4.68825 2.71472 4.76235L0.95658 5.76122C0.956526 5.76125 0.956444 5.76128 0.95639 5.76133L0.951801 5.76394C0.95058 5.76462 0.949548 5.76551 0.948354 5.76622C0.940535 5.77083 0.932987 5.77583 0.925684 5.78118C0.923268 5.78292 0.920878 5.78468 0.918544 5.7865C0.910779 5.79261 0.903259 5.79904 0.8962 5.80594C0.895575 5.80656 0.894842 5.80711 0.894218 5.80773C0.886725 5.8152 0.879829 5.82321 0.873259 5.83149C0.871412 5.83379 0.869729 5.83618 0.867964 5.83854C0.86305 5.84525 0.858435 5.85212 0.854118 5.85921Z" fill="#E31F26"/>
<path d="M9.01652 5.23608L9.88608 5.73012H6.81397C6.66403 5.73012 6.54248 5.85169 6.54248 6.00161C6.54248 6.15153 6.66403 6.2731 6.81397 6.2731H9.88608L9.01652 6.76714C8.88615 6.8412 8.84051 7.00692 8.91457 7.13729C8.96458 7.22534 9.0564 7.27475 9.15088 7.27475C9.19633 7.27475 9.2424 7.26332 9.28475 7.23924L11.0429 6.24036C11.0429 6.24033 11.043 6.24031 11.0431 6.24025L11.0477 6.23764C11.0489 6.23697 11.0499 6.23607 11.0511 6.23536C11.0589 6.23075 11.0665 6.22575 11.0738 6.22041C11.0762 6.21867 11.0786 6.2169 11.0809 6.21508C11.0887 6.20898 11.0962 6.20254 11.1033 6.19564C11.1039 6.19502 11.1046 6.19448 11.1053 6.19385C11.1127 6.18639 11.1196 6.17838 11.1262 6.1701C11.1281 6.16779 11.1297 6.1654 11.1315 6.16304C11.1364 6.15639 11.1411 6.14952 11.1454 6.14241C11.1467 6.14018 11.1481 6.13798 11.1494 6.13573C11.1601 6.11705 11.1685 6.09704 11.1745 6.07594C11.1752 6.07336 11.1758 6.07079 11.1765 6.06821C11.1786 6.06006 11.1802 6.05175 11.1815 6.04331C11.1819 6.04043 11.1825 6.03758 11.1828 6.03468C11.1842 6.02384 11.185 6.01285 11.185 6.00164C11.185 5.99042 11.1841 5.97945 11.1828 5.96859C11.1825 5.96569 11.182 5.96284 11.1815 5.95996C11.1802 5.95152 11.1785 5.94324 11.1765 5.93507C11.1758 5.93249 11.1752 5.92991 11.1745 5.92733C11.1685 5.90623 11.1601 5.88622 11.1494 5.86755C11.1481 5.86529 11.1467 5.86309 11.1454 5.86087C11.1411 5.85375 11.1364 5.84688 11.1315 5.84023C11.1297 5.83787 11.1281 5.83548 11.1262 5.83317C11.1196 5.82487 11.1127 5.81686 11.1053 5.80942C11.1046 5.80879 11.1039 5.80825 11.1033 5.80763C11.0962 5.80073 11.0887 5.7943 11.0809 5.78819C11.0786 5.78637 11.0762 5.7846 11.0738 5.78287C11.0665 5.77752 11.0589 5.77252 11.0511 5.76791C11.0499 5.7672 11.0489 5.76631 11.0477 5.76563L11.0431 5.76302C11.043 5.76299 11.0429 5.76294 11.0429 5.76291L9.28475 4.76403C9.15433 4.68989 8.98863 4.73561 8.91457 4.86598C8.84051 4.99635 8.88615 5.16202 9.01652 5.23608Z" fill="#E31F26"/>
</svg>
